# xmcd
#
# Track frame offsets:
#	150
#	13426
#	33231
#	50796
#	78173
#	96650
#	120293
#	131579
#	147693
#	159622
#	173985
#	191627
#	207188
#	221960
#
# Disc length: 3121 seconds
#
# Revision: 0
# Processed by: cddbd v1.5.2PL0 Copyright (c) Steve Scherf et al.
# Submitted via: EasyCDDAExtractor 16.0.1.1
#
DISCID=d70c2f0e
DTITLE=Ronnie Earl And The Broadcasters - Deep Blues
DYEAR=1988
DGENRE=Blues
TTITLE0=Ronnie Johnnie
TTITLE1=I Smell Trouble
TTITLE2=She Winked Her Eye
TTITLE3=Baby Doll Blues
TTITLE4=Ridin' In The Moonlight
TTITLE5=My Home Is A Prison
TTITLE6=Sick And Tired
TTITLE7=San Ho Zay (Smokin')
TTITLE8=You Give Me Nothing But The Blues
TTITLE9=You've Got Me Wrong
TTITLE10=Narcolepsy (Mr. Earl Wakes Up Late)
TTITLE11=Some Day. Some Way
TTITLE12=No More Chances
TTITLE13=Waitin' For My Chance
EXTD=
EXTT0=
EXTT1=
EXTT2=
EXTT3=
EXTT4=
EXTT5=
EXTT6=
EXTT7=
EXTT8=
EXTT9=
EXTT10=
EXTT11=
EXTT12=
EXTT13=
PLAYORDER=
